<svg width="29" height="29" viewBox="0 0 29 29" fill="none" xmlns="http://www.w3.org/2000/svg">
<path d="M14.6408 18.0011C16.6953 18.0011 18.3608 16.3356 18.3608 14.281C18.3608 12.2265 16.6953 10.561 14.6408 10.561C12.5863 10.561 10.9208 12.2265 10.9208 14.281C10.9208 16.3356 12.5863 18.0011 14.6408 18.0011Z" stroke="#848588" stroke-width="2.79002" stroke-linecap="round" stroke-linejoin="round"/>
<path d="M22.9827 17.6629C22.8326 18.0029 22.7879 18.3801 22.8542 18.7457C22.9205 19.1114 23.0948 19.4489 23.3547 19.7145L23.4223 19.7822C23.632 19.9916 23.7983 20.2402 23.9117 20.5139C24.0252 20.7876 24.0836 21.081 24.0836 21.3773C24.0836 21.6736 24.0252 21.9669 23.9117 22.2406C23.7983 22.5143 23.632 22.763 23.4223 22.9724C23.213 23.182 22.9643 23.3483 22.6906 23.4618C22.4169 23.5752 22.1235 23.6336 21.8272 23.6336C21.531 23.6336 21.2376 23.5752 20.9639 23.4618C20.6902 23.3483 20.4415 23.182 20.2321 22.9724L20.1645 22.9047C19.8988 22.6449 19.5614 22.4705 19.1957 22.4042C18.83 22.3379 18.4529 22.3827 18.1128 22.5327C17.7794 22.6756 17.4951 22.9129 17.2948 23.2154C17.0945 23.5178 16.987 23.8722 16.9856 24.2349V24.4266C16.9856 25.0245 16.748 25.598 16.3252 26.0208C15.9024 26.4436 15.3289 26.6811 14.731 26.6811C14.1331 26.6811 13.5596 26.4436 13.1368 26.0208C12.714 25.598 12.4764 25.0245 12.4764 24.4266V24.3251C12.4677 23.952 12.3469 23.5901 12.1298 23.2866C11.9127 22.983 11.6093 22.7518 11.259 22.6229C10.919 22.4729 10.5418 22.4281 10.1761 22.4944C9.81044 22.5607 9.473 22.7351 9.20732 22.9949L9.13968 23.0626C8.9303 23.2722 8.68164 23.4385 8.40794 23.5519C8.13425 23.6654 7.84087 23.7238 7.54458 23.7238C7.2483 23.7238 6.95492 23.6654 6.68122 23.5519C6.40752 23.4385 6.15887 23.2722 5.94948 23.0626C5.73986 22.8532 5.57356 22.6045 5.4601 22.3308C5.34664 22.0571 5.28825 21.7638 5.28825 21.4675C5.28825 21.1712 5.34664 20.8778 5.4601 20.6041C5.57356 20.3304 5.73986 20.0817 5.94948 19.8724L6.01712 19.8047C6.277 19.539 6.45133 19.2016 6.51763 18.8359C6.58394 18.4702 6.53918 18.0931 6.38912 17.7531C6.24622 17.4197 6.00895 17.1353 5.70651 16.935C5.40407 16.7347 5.04967 16.6272 4.68692 16.6258H4.49529C3.89734 16.6258 3.32388 16.3883 2.90107 15.9654C2.47826 15.5426 2.24072 14.9692 2.24072 14.3712C2.24072 13.7733 2.47826 13.1998 2.90107 12.777C3.32388 12.3542 3.89734 12.1167 4.49529 12.1167H4.59674C4.96986 12.1079 5.33173 11.9872 5.6353 11.77C5.93887 11.5529 6.17011 11.2495 6.29894 10.8992C6.44899 10.5592 6.49376 10.182 6.42745 9.81635C6.36115 9.45066 6.18681 9.11323 5.92693 8.84755L5.8593 8.77991C5.64967 8.57052 5.48338 8.32187 5.36992 8.04817C5.25646 7.77447 5.19806 7.48109 5.19806 7.18481C5.19806 6.88853 5.25646 6.59515 5.36992 6.32145C5.48338 6.04775 5.64967 5.79909 5.8593 5.58971C6.06868 5.38009 6.31734 5.21379 6.59104 5.10033C6.86474 4.98687 7.15811 4.92847 7.4544 4.92847C7.75068 4.92847 8.04406 4.98687 8.31776 5.10033C8.59146 5.21379 8.84011 5.38009 9.0495 5.58971L9.11714 5.65734C9.38282 5.91722 9.72025 6.09156 10.0859 6.15786C10.4516 6.22417 10.8288 6.1794 11.1688 6.02935H11.259C11.5924 5.88645 11.8767 5.64918 12.077 5.34674C12.2773 5.0443 12.3848 4.6899 12.3863 4.32715V4.13551C12.3863 3.53757 12.6238 2.96411 13.0466 2.5413C13.4694 2.11848 14.0429 1.88095 14.6408 1.88095C15.2388 1.88095 15.8122 2.11848 16.235 2.5413C16.6578 2.96411 16.8954 3.53757 16.8954 4.13551V4.23697C16.8968 4.59971 17.0043 4.95412 17.2046 5.25656C17.4049 5.559 17.6892 5.79627 18.0227 5.93916C18.3627 6.08922 18.7398 6.13398 19.1055 6.06768C19.4712 6.00137 19.8086 5.82704 20.0743 5.56716L20.142 5.49952C20.3513 5.2899 20.6 5.12361 20.8737 5.01015C21.1474 4.89669 21.4408 4.83829 21.7371 4.83829C22.0333 4.83829 22.3267 4.89669 22.6004 5.01015C22.8741 5.12361 23.1228 5.2899 23.3322 5.49952C23.5418 5.70891 23.7081 5.95757 23.8215 6.23126C23.935 6.50496 23.9934 6.79834 23.9934 7.09463C23.9934 7.39091 23.935 7.68429 23.8215 7.95799C23.7081 8.23169 23.5418 8.48034 23.3322 8.68973L23.2645 8.75737C23.0046 9.02304 22.8303 9.36048 22.764 9.72617C22.6977 10.0919 22.7425 10.469 22.8925 10.809V10.8992C23.0354 11.2326 23.2727 11.517 23.5751 11.7173C23.8776 11.9176 24.232 12.025 24.5947 12.0265H24.7864C25.3843 12.0265 25.9578 12.264 26.3806 12.6868C26.8034 13.1096 27.0409 13.6831 27.0409 14.281C27.0409 14.879 26.8034 15.4525 26.3806 15.8753C25.9578 16.2981 25.3843 16.5356 24.7864 16.5356H24.6849C24.3222 16.5371 23.9677 16.6445 23.6653 16.8448C23.3629 17.0451 23.1256 17.3295 22.9827 17.6629Z" stroke="#848588" stroke-width="2.79002" stroke-linecap="round" stroke-linejoin="round"/>
</svg>
