<svg width="23" height="26" viewBox="0 0 23 26" fill="none" xmlns="http://www.w3.org/2000/svg">
  <path d="M21.5604 24.5211C21.5604 22.7906 21.5604 21.9253 21.3468 21.2212C20.8659 19.636 19.6254 18.3955 18.0402 17.9146C17.3361 17.701 16.4708 17.701 14.7403 17.701H8.54027C6.80976 17.701 5.9445 17.701 5.24043 17.9146C3.65519 18.3955 2.41467 19.636 1.93379 21.2212C1.72021 21.9253 1.72021 22.7906 1.72021 24.5211M17.2203 7.78094C17.2203 10.8627 14.7221 13.361 11.6403 13.361C8.55852 13.361 6.06025 10.8627 6.06025 7.78094C6.06025 4.69917 8.55852 2.2009 11.6403 2.2009C14.7221 2.2009 17.2203 4.69917 17.2203 7.78094Z" stroke="#848588" stroke-width="2.79002" stroke-linecap="round" stroke-linejoin="round"/>
</svg>
