<svg width="31" height="31" viewBox="0 0 31 31" fill="none" xmlns="http://www.w3.org/2000/svg">
<path d="M15.6408 19.0011C17.6953 19.0011 19.3608 17.3356 19.3608 15.281C19.3608 13.2265 17.6953 11.561 15.6408 11.561C13.5863 11.561 11.9208 13.2265 11.9208 15.281C11.9208 17.3356 13.5863 19.0011 15.6408 19.0011Z" stroke="#848588" stroke-width="2.79002" stroke-linecap="round" stroke-linejoin="round"/>
<path d="M23.9827 18.6629C23.8326 19.0029 23.7879 19.3801 23.8542 19.7457C23.9205 20.1114 24.0948 20.4489 24.3547 20.7145L24.4223 20.7822C24.632 20.9916 24.7983 21.2402 24.9117 21.5139C25.0252 21.7876 25.0836 22.081 25.0836 22.3773C25.0836 22.6736 25.0252 22.9669 24.9117 23.2406C24.7983 23.5143 24.632 23.763 24.4223 23.9724C24.213 24.182 23.9643 24.3483 23.6906 24.4618C23.4169 24.5752 23.1235 24.6336 22.8272 24.6336C22.531 24.6336 22.2376 24.5752 21.9639 24.4618C21.6902 24.3483 21.4415 24.182 21.2321 23.9724L21.1645 23.9047C20.8988 23.6449 20.5614 23.4705 20.1957 23.4042C19.83 23.3379 19.4529 23.3827 19.1128 23.5327C18.7794 23.6756 18.4951 23.9129 18.2948 24.2154C18.0945 24.5178 17.987 24.8722 17.9856 25.2349V25.4266C17.9856 26.0245 17.748 26.598 17.3252 27.0208C16.9024 27.4436 16.3289 27.6811 15.731 27.6811C15.1331 27.6811 14.5596 27.4436 14.1368 27.0208C13.714 26.598 13.4764 26.0245 13.4764 25.4266V25.3251C13.4677 24.952 13.3469 24.5901 13.1298 24.2866C12.9127 23.983 12.6093 23.7518 12.259 23.6229C11.919 23.4729 11.5418 23.4281 11.1761 23.4944C10.8104 23.5607 10.473 23.7351 10.2073 23.9949L10.1397 24.0626C9.9303 24.2722 9.68164 24.4385 9.40794 24.5519C9.13425 24.6654 8.84087 24.7238 8.54458 24.7238C8.2483 24.7238 7.95492 24.6654 7.68122 24.5519C7.40752 24.4385 7.15887 24.2722 6.94948 24.0626C6.73986 23.8532 6.57356 23.6045 6.4601 23.3308C6.34664 23.0571 6.28825 22.7638 6.28825 22.4675C6.28825 22.1712 6.34664 21.8778 6.4601 21.6041C6.57356 21.3304 6.73986 21.0817 6.94948 20.8724L7.01712 20.8047C7.277 20.539 7.45133 20.2016 7.51763 19.8359C7.58394 19.4702 7.53918 19.0931 7.38912 18.7531C7.24622 18.4197 7.00895 18.1353 6.70651 17.935C6.40407 17.7347 6.04967 17.6272 5.68692 17.6258H5.49529C4.89734 17.6258 4.32388 17.3883 3.90107 16.9654C3.47826 16.5426 3.24072 15.9692 3.24072 15.3712C3.24072 14.7733 3.47826 14.1998 3.90107 13.777C4.32388 13.3542 4.89734 13.1167 5.49529 13.1167H5.59674C5.96986 13.1079 6.33173 12.9872 6.6353 12.77C6.93887 12.5529 7.17011 12.2495 7.29894 11.8992C7.44899 11.5592 7.49376 11.182 7.42745 10.8163C7.36115 10.4507 7.18681 10.1132 6.92693 9.84755L6.8593 9.77991C6.64967 9.57052 6.48338 9.32187 6.36992 9.04817C6.25646 8.77447 6.19806 8.48109 6.19806 8.18481C6.19806 7.88853 6.25646 7.59515 6.36992 7.32145C6.48338 7.04775 6.64967 6.79909 6.8593 6.58971C7.06868 6.38009 7.31734 6.21379 7.59104 6.10033C7.86474 5.98687 8.15811 5.92847 8.4544 5.92847C8.75068 5.92847 9.04406 5.98687 9.31776 6.10033C9.59146 6.21379 9.84011 6.38009 10.0495 6.58971L10.1171 6.65734C10.3828 6.91722 10.7203 7.09156 11.0859 7.15786C11.4516 7.22417 11.8288 7.1794 12.1688 7.02935H12.259C12.5924 6.88645 12.8767 6.64918 13.077 6.34674C13.2773 6.0443 13.3848 5.6899 13.3863 5.32715V5.13551C13.3863 4.53757 13.6238 3.96411 14.0466 3.5413C14.4694 3.11848 15.0429 2.88095 15.6408 2.88095C16.2388 2.88095 16.8122 3.11848 17.235 3.5413C17.6578 3.96411 17.8954 4.53757 17.8954 5.13551V5.23697C17.8968 5.59971 18.0043 5.95412 18.2046 6.25656C18.4049 6.559 18.6892 6.79627 19.0227 6.93916C19.3627 7.08922 19.7398 7.13398 20.1055 7.06768C20.4712 7.00137 20.8086 6.82704 21.0743 6.56716L21.142 6.49952C21.3513 6.2899 21.6 6.12361 21.8737 6.01015C22.1474 5.89669 22.4408 5.83829 22.7371 5.83829C23.0333 5.83829 23.3267 5.89669 23.6004 6.01015C23.8741 6.12361 24.1228 6.2899 24.3322 6.49952C24.5418 6.70891 24.7081 6.95757 24.8215 7.23126C24.935 7.50496 24.9934 7.79834 24.9934 8.09463C24.9934 8.39091 24.935 8.68429 24.8215 8.95799C24.7081 9.23169 24.5418 9.48034 24.3322 9.68973L24.2645 9.75737C24.0046 10.023 23.8303 10.3605 23.764 10.7262C23.6977 11.0919 23.7425 11.469 23.8925 11.809V11.8992C24.0354 12.2326 24.2727 12.517 24.5751 12.7173C24.8776 12.9176 25.232 13.025 25.5947 13.0265H25.7864C26.3843 13.0265 26.9578 13.264 27.3806 13.6868C27.8034 14.1096 28.0409 14.6831 28.0409 15.281C28.0409 15.879 27.8034 16.4525 27.3806 16.8753C26.9578 17.2981 26.3843 17.5356 25.7864 17.5356H25.6849C25.3222 17.5371 24.9677 17.6445 24.6653 17.8448C24.3629 18.0451 24.1256 18.3295 23.9827 18.6629Z" stroke="#848588" stroke-width="2.79002" stroke-linecap="round" stroke-linejoin="round"/>
</svg>
