<svg width="29" height="26" viewBox="0 0 29 26" fill="none" xmlns="http://www.w3.org/2000/svg">
<path d="M27.0409 24.2417V21.7617C27.0409 19.4505 25.4602 17.5085 23.3209 16.9579M18.9809 2.28205C20.7986 3.01786 22.0809 4.79996 22.0809 6.88155C22.0809 8.96314 20.7986 10.7452 18.9809 11.481M20.8409 24.2417C20.8409 21.9306 20.8409 20.775 20.4633 19.8635C19.9599 18.6482 18.9943 17.6826 17.779 17.1792C16.8674 16.8016 15.7119 16.8016 13.4008 16.8016H9.68078C7.36969 16.8016 6.21415 16.8016 5.30264 17.1792C4.08729 17.6826 3.1217 18.6482 2.61828 19.8635C2.24072 20.775 2.24072 21.9306 2.24072 24.2417M16.5008 6.88155C16.5008 9.6209 14.2801 11.8416 11.5408 11.8416C8.80144 11.8416 6.58076 9.6209 6.58076 6.88155C6.58076 4.14219 8.80144 1.92151 11.5408 1.92151C14.2801 1.92151 16.5008 4.14219 16.5008 6.88155Z" stroke="#848588" stroke-width="2.79002" stroke-linecap="round" stroke-linejoin="round"/>
</svg>
